<mxfile host="app.diagrams.net" modified="2022-06-18T07:17:16.445Z" agent="5.0 (Windows NT 10.0; Win64; x64) AppleWebKit/537.36 (KHTML, like Gecko) Chrome/102.0.0.0 Safari/537.36" etag="CnTJh7N0h5YL5Jl9Ouga" version="20.0.1" type="github">
  <diagram id="CuuKTZPyaawJgWkVKOTw" name="Page-1">
    <mxGraphModel dx="1052" dy="497" grid="1" gridSize="10" guides="1" tooltips="1" connect="1" arrows="1" fold="1" page="1" pageScale="1" pageWidth="827" pageHeight="1169" math="0" shadow="0">
      <root>
        <mxCell id="0" />
        <mxCell id="1" parent="0" />
        <mxCell id="oVDyS-_QJWkw1_9MWcKA-3" value="" style="edgeStyle=orthogonalEdgeStyle;rounded=0;orthogonalLoop=1;jettySize=auto;html=1;" edge="1" parent="1" source="oVDyS-_QJWkw1_9MWcKA-1" target="oVDyS-_QJWkw1_9MWcKA-2">
          <mxGeometry relative="1" as="geometry" />
        </mxCell>
        <mxCell id="oVDyS-_QJWkw1_9MWcKA-1" value="开始" style="ellipse;whiteSpace=wrap;html=1;" vertex="1" parent="1">
          <mxGeometry x="310" y="30" width="120" height="60" as="geometry" />
        </mxCell>
        <mxCell id="oVDyS-_QJWkw1_9MWcKA-5" value="" style="edgeStyle=orthogonalEdgeStyle;rounded=0;orthogonalLoop=1;jettySize=auto;html=1;" edge="1" parent="1" source="oVDyS-_QJWkw1_9MWcKA-2" target="oVDyS-_QJWkw1_9MWcKA-4">
          <mxGeometry relative="1" as="geometry" />
        </mxCell>
        <mxCell id="oVDyS-_QJWkw1_9MWcKA-2" value="截获数据包" style="whiteSpace=wrap;html=1;" vertex="1" parent="1">
          <mxGeometry x="310" y="120" width="120" height="60" as="geometry" />
        </mxCell>
        <mxCell id="oVDyS-_QJWkw1_9MWcKA-7" value="" style="edgeStyle=orthogonalEdgeStyle;rounded=0;orthogonalLoop=1;jettySize=auto;html=1;" edge="1" parent="1" source="oVDyS-_QJWkw1_9MWcKA-4" target="oVDyS-_QJWkw1_9MWcKA-6">
          <mxGeometry relative="1" as="geometry" />
        </mxCell>
        <mxCell id="oVDyS-_QJWkw1_9MWcKA-4" value="是否为80端口" style="rhombus;whiteSpace=wrap;html=1;" vertex="1" parent="1">
          <mxGeometry x="300" y="210" width="140" height="80" as="geometry" />
        </mxCell>
        <mxCell id="oVDyS-_QJWkw1_9MWcKA-10" value="" style="edgeStyle=orthogonalEdgeStyle;rounded=0;orthogonalLoop=1;jettySize=auto;html=1;" edge="1" parent="1" source="oVDyS-_QJWkw1_9MWcKA-6" target="oVDyS-_QJWkw1_9MWcKA-9">
          <mxGeometry relative="1" as="geometry" />
        </mxCell>
        <mxCell id="oVDyS-_QJWkw1_9MWcKA-6" value="输出时间" style="whiteSpace=wrap;html=1;" vertex="1" parent="1">
          <mxGeometry x="310" y="320" width="120" height="60" as="geometry" />
        </mxCell>
        <mxCell id="oVDyS-_QJWkw1_9MWcKA-8" value="yes" style="text;html=1;strokeColor=none;fillColor=none;align=center;verticalAlign=middle;whiteSpace=wrap;rounded=0;" vertex="1" parent="1">
          <mxGeometry x="370" y="290" width="60" height="30" as="geometry" />
        </mxCell>
        <mxCell id="oVDyS-_QJWkw1_9MWcKA-12" value="" style="edgeStyle=orthogonalEdgeStyle;rounded=0;orthogonalLoop=1;jettySize=auto;html=1;" edge="1" parent="1" source="oVDyS-_QJWkw1_9MWcKA-9" target="oVDyS-_QJWkw1_9MWcKA-11">
          <mxGeometry relative="1" as="geometry" />
        </mxCell>
        <mxCell id="oVDyS-_QJWkw1_9MWcKA-9" value="是否为post报文" style="rhombus;whiteSpace=wrap;html=1;" vertex="1" parent="1">
          <mxGeometry x="300" y="410" width="140" height="80" as="geometry" />
        </mxCell>
        <mxCell id="oVDyS-_QJWkw1_9MWcKA-11" value="分析用户名和口令" style="whiteSpace=wrap;html=1;" vertex="1" parent="1">
          <mxGeometry x="190" y="530" width="120" height="60" as="geometry" />
        </mxCell>
        <mxCell id="oVDyS-_QJWkw1_9MWcKA-14" value="登录数据包" style="text;html=1;strokeColor=none;fillColor=none;align=center;verticalAlign=middle;whiteSpace=wrap;rounded=0;" vertex="1" parent="1">
          <mxGeometry x="260" y="480" width="70" height="30" as="geometry" />
        </mxCell>
        <mxCell id="oVDyS-_QJWkw1_9MWcKA-18" value="" style="edgeStyle=orthogonalEdgeStyle;rounded=0;orthogonalLoop=1;jettySize=auto;html=1;exitX=0.5;exitY=1;exitDx=0;exitDy=0;" edge="1" parent="1" source="oVDyS-_QJWkw1_9MWcKA-11" target="oVDyS-_QJWkw1_9MWcKA-17">
          <mxGeometry relative="1" as="geometry">
            <mxPoint x="250" y="680" as="sourcePoint" />
            <Array as="points" />
          </mxGeometry>
        </mxCell>
        <mxCell id="oVDyS-_QJWkw1_9MWcKA-17" value="输出" style="whiteSpace=wrap;html=1;" vertex="1" parent="1">
          <mxGeometry x="190" y="630" width="120" height="60" as="geometry" />
        </mxCell>
        <mxCell id="oVDyS-_QJWkw1_9MWcKA-19" value="" style="endArrow=classic;html=1;rounded=0;" edge="1" parent="1">
          <mxGeometry width="50" height="50" relative="1" as="geometry">
            <mxPoint x="370" y="510" as="sourcePoint" />
            <mxPoint x="490" y="530" as="targetPoint" />
            <Array as="points">
              <mxPoint x="490" y="510" />
            </Array>
          </mxGeometry>
        </mxCell>
        <mxCell id="oVDyS-_QJWkw1_9MWcKA-22" value="" style="edgeStyle=orthogonalEdgeStyle;rounded=0;orthogonalLoop=1;jettySize=auto;html=1;" edge="1" parent="1" source="oVDyS-_QJWkw1_9MWcKA-20" target="oVDyS-_QJWkw1_9MWcKA-21">
          <mxGeometry relative="1" as="geometry" />
        </mxCell>
        <mxCell id="oVDyS-_QJWkw1_9MWcKA-20" value="提取所需信息" style="rounded=0;whiteSpace=wrap;html=1;" vertex="1" parent="1">
          <mxGeometry x="430" y="530" width="120" height="60" as="geometry" />
        </mxCell>
        <mxCell id="oVDyS-_QJWkw1_9MWcKA-21" value="输出" style="whiteSpace=wrap;html=1;rounded=0;" vertex="1" parent="1">
          <mxGeometry x="430" y="630" width="120" height="60" as="geometry" />
        </mxCell>
        <mxCell id="oVDyS-_QJWkw1_9MWcKA-23" value="yes" style="text;html=1;strokeColor=none;fillColor=none;align=center;verticalAlign=middle;whiteSpace=wrap;rounded=0;" vertex="1" parent="1">
          <mxGeometry x="370" y="480" width="60" height="30" as="geometry" />
        </mxCell>
        <mxCell id="oVDyS-_QJWkw1_9MWcKA-24" value="交互数据包" style="text;html=1;strokeColor=none;fillColor=none;align=center;verticalAlign=middle;whiteSpace=wrap;rounded=0;" vertex="1" parent="1">
          <mxGeometry x="440" y="480" width="70" height="30" as="geometry" />
        </mxCell>
        <mxCell id="oVDyS-_QJWkw1_9MWcKA-25" value="结束" style="ellipse;whiteSpace=wrap;html=1;" vertex="1" parent="1">
          <mxGeometry x="310" y="750" width="120" height="60" as="geometry" />
        </mxCell>
        <mxCell id="oVDyS-_QJWkw1_9MWcKA-26" value="" style="endArrow=classic;html=1;rounded=0;entryX=0.5;entryY=0;entryDx=0;entryDy=0;" edge="1" parent="1" source="oVDyS-_QJWkw1_9MWcKA-17" target="oVDyS-_QJWkw1_9MWcKA-25">
          <mxGeometry width="50" height="50" relative="1" as="geometry">
            <mxPoint x="200" y="780" as="sourcePoint" />
            <mxPoint x="420" y="720" as="targetPoint" />
            <Array as="points">
              <mxPoint x="250" y="720" />
              <mxPoint x="370" y="720" />
            </Array>
          </mxGeometry>
        </mxCell>
        <mxCell id="oVDyS-_QJWkw1_9MWcKA-27" value="" style="endArrow=none;html=1;rounded=0;entryX=0.5;entryY=1;entryDx=0;entryDy=0;" edge="1" parent="1" target="oVDyS-_QJWkw1_9MWcKA-21">
          <mxGeometry width="50" height="50" relative="1" as="geometry">
            <mxPoint x="370" y="720" as="sourcePoint" />
            <mxPoint x="570" y="800" as="targetPoint" />
            <Array as="points">
              <mxPoint x="490" y="720" />
            </Array>
          </mxGeometry>
        </mxCell>
        <mxCell id="oVDyS-_QJWkw1_9MWcKA-28" value="" style="endArrow=none;html=1;rounded=0;exitX=1;exitY=0.5;exitDx=0;exitDy=0;" edge="1" parent="1" source="oVDyS-_QJWkw1_9MWcKA-4">
          <mxGeometry width="50" height="50" relative="1" as="geometry">
            <mxPoint x="620" y="400" as="sourcePoint" />
            <mxPoint x="490" y="720" as="targetPoint" />
            <Array as="points">
              <mxPoint x="590" y="250" />
              <mxPoint x="590" y="720" />
            </Array>
          </mxGeometry>
        </mxCell>
        <mxCell id="oVDyS-_QJWkw1_9MWcKA-29" value="" style="endArrow=none;html=1;rounded=0;exitX=1;exitY=0.5;exitDx=0;exitDy=0;" edge="1" parent="1" source="oVDyS-_QJWkw1_9MWcKA-9">
          <mxGeometry width="50" height="50" relative="1" as="geometry">
            <mxPoint x="470" y="450" as="sourcePoint" />
            <mxPoint x="590" y="450" as="targetPoint" />
          </mxGeometry>
        </mxCell>
        <mxCell id="oVDyS-_QJWkw1_9MWcKA-30" value="no" style="text;html=1;strokeColor=none;fillColor=none;align=center;verticalAlign=middle;whiteSpace=wrap;rounded=0;" vertex="1" parent="1">
          <mxGeometry x="470" y="220" width="60" height="30" as="geometry" />
        </mxCell>
        <mxCell id="oVDyS-_QJWkw1_9MWcKA-31" value="no" style="text;html=1;strokeColor=none;fillColor=none;align=center;verticalAlign=middle;whiteSpace=wrap;rounded=0;" vertex="1" parent="1">
          <mxGeometry x="480" y="420" width="60" height="30" as="geometry" />
        </mxCell>
      </root>
    </mxGraphModel>
  </diagram>
</mxfile>
